<?xml version="1.0" encoding="utf-8"?>
<!-- Generator: Adobe Illustrator 24.3.0, SVG Export Plug-In . SVG Version: 6.00 Build 0)  -->
<svg version="1.1" id="Camada_1" xmlns="http://www.w3.org/2000/svg" xmlns:xlink="http://www.w3.org/1999/xlink" x="0px" y="0px"
	 viewBox="0 0 200.4 39.6" style="enable-background:new 0 0 200.4 39.6;" xml:space="preserve">
<style type="text/css">
	.st0{fill:#FFFFFF;}
</style>
<g>
	<polygon class="st0" points="153.1,0 176.7,36.6 180.6,30.6 160.8,0 	"/>
	<polygon class="st0" points="178.1,22.5 182,28.5 200.4,0 192.6,0 	"/>
	<polygon class="st0" points="189.9,0 182.2,0 172.9,14.4 176.8,20.4 	"/>
	<path class="st0" d="M9,8.9C5.7,7.9,4.7,7,4.7,5.6c0-1.2,1.2-2.5,4-2.5c1.9,0,3.4,0.5,4.3,0.9l0.5,0.2l1.2-3L14.2,1
		c-0.8-0.4-2.6-1-5.5-1C4,0,0.6,2.4,0.6,5.9c0,3.7,3.8,5.2,6.6,6.1c3.4,1.1,4.1,2.1,4.1,3.5c0,1.8-1.7,2.9-4.5,2.9
		c-1.8,0-3.8-0.5-5.3-1.2l-0.5-0.3L0,19.8l0.4,0.2c1.4,0.8,4,1.3,6.3,1.3c6.5,0,8.8-3.3,8.8-6.2C15.4,11.5,12.2,10,9,8.9z"/>
	<polygon class="st0" points="33,17.6 22.7,17.6 22.7,11.5 32,11.5 32,8.4 22.7,8.4 22.7,3.1 32.5,3.1 32.5,0 18.7,0 18.7,20.8 
		33,20.8 	"/>
	<path class="st0" d="M45.7,20.8L54.7,0h-4.4l-4.1,10.1c-0.8,1.9-1.6,4-2.3,6c-0.6-1.8-1.3-3.8-2.1-6L37.9,0h-4.4l8.1,20.8H45.7z"/>
	<polygon class="st0" points="70.3,17.6 60,17.6 60,11.5 69.2,11.5 69.2,8.4 60,8.4 60,3.1 69.8,3.1 69.8,0 56,0 56,20.8 70.3,20.8 
			"/>
	<path class="st0" d="M88.2,8.8c0,2.2,0,4.1,0.2,6.1c-0.9-1.5-2-3.1-3.3-4.7L77.4,0h-4.1v20.8h3.9v-8.9c0-2.5,0-4.5-0.1-6.4
		c0.9,1.5,2.1,3.2,3.5,5.1l7.7,10.2h3.8V0h-3.9L88.2,8.8L88.2,8.8z"/>
	<path class="st0" d="M101.5,18.9c-1.9,0-3.8-0.4-5.5-1.2l-0.6,1.5c1.4,0.6,3.7,1.1,5.8,1.1c5,0,8.2-2.2,8.2-5.5
		c0-2.6-1.7-4.2-6-5.6c-3.3-1.1-5.1-2.1-5.1-4.3c0-1.7,1.5-3.4,5-3.4c1.9,0,3.4,0.4,4.4,0.8l0.6-1.5c-0.9-0.4-2.5-0.8-4.9-0.8
		c-4.4,0-7.6,2.1-7.6,5.2c0,2.5,2,4.2,6.2,5.4c2.9,0.9,4.9,2,4.9,4.4C107,17.4,104.8,18.9,101.5,18.9z"/>
	<path class="st0" d="M120,19.7h2.5v-8.4L130.3,0h-2.7l-3.8,6c-0.8,1.3-1.5,2.5-2.1,3.6l-0.1,0.2h-0.5L121,9.6
		c-0.7-1.3-1.4-2.5-2.4-4.2L115.3,0h-2.7l7.4,11.3V19.7z"/>
	<path class="st0" d="M140.6,9.2c-3.3-1.1-5.1-2.1-5.1-4.3c0-1.7,1.5-3.4,5-3.4c1.9,0,3.4,0.4,4.4,0.8l0.6-1.5
		C144.6,0.5,143,0,140.5,0c-4.4,0-7.6,2.1-7.6,5.2c0,2.5,2,4.2,6.2,5.4c2.9,0.9,4.9,2,4.9,4.4c0,2.3-2.2,3.9-5.5,3.9
		c-1.9,0-3.8-0.4-5.5-1.2l-0.6,1.5c1.4,0.6,3.7,1.1,5.8,1.1c5,0,8.2-2.2,8.2-5.5C146.6,12.2,144.8,10.6,140.6,9.2z"/>
	<path class="st0" d="M21,31.3l-1.8-0.4c-1-0.2-1.5-0.6-1.5-1.1c0-0.3,0.1-0.6,0.5-0.8c0.3-0.2,0.8-0.3,1.4-0.3c1,0,1.7,0.4,2,1.1
		l1.9-0.4c-0.2-0.6-0.7-1.1-1.4-1.5c-0.7-0.3-1.6-0.5-2.5-0.5c-1.1,0-2,0.3-2.7,0.7c-0.7,0.5-1.1,1.2-1.1,2c0,0.4,0.1,0.8,0.3,1.2
		c0.2,0.4,0.5,0.6,0.8,0.8c0.3,0.2,0.9,0.4,1.6,0.5l2.1,0.5c0.5,0.1,0.9,0.3,1.1,0.5c0.2,0.2,0.3,0.4,0.3,0.7c0,0.4-0.2,0.6-0.6,0.9
		c-0.4,0.2-0.9,0.4-1.6,0.4c-1.5,0-2.4-0.5-2.6-1.4l-1.9,0.3c0.3,0.8,0.8,1.4,1.6,1.8c0.8,0.4,1.7,0.6,2.8,0.6
		c1.3,0,2.3-0.3,3.1-0.8c0.8-0.5,1.2-1.2,1.2-2.1c0-0.6-0.2-1.1-0.6-1.5C22.9,31.9,22.1,31.5,21,31.3z"/>
	<path class="st0" d="M29.5,27.3c-1.4,0-2.5,0.5-3.3,1.4c-0.8,0.9-1.3,2-1.3,3.4c0,1.3,0.4,2.5,1.2,3.4s1.9,1.4,3.3,1.4
		c1.4,0,2.5-0.4,3.3-1.3c0.8-0.9,1.3-2,1.3-3.5c0-1.4-0.4-2.5-1.2-3.4C32,27.7,30.9,27.3,29.5,27.3z M31.2,34.7
		c-0.5,0.5-1.1,0.7-1.8,0.7c-0.8,0-1.4-0.3-1.8-0.9C27.2,34,27,33.2,27,32.1c0-2.3,0.8-3.4,2.5-3.4c0.8,0,1.5,0.3,1.9,0.9
		c0.4,0.6,0.6,1.4,0.6,2.5C32,33.4,31.7,34.2,31.2,34.7z"/>
	<polygon class="st0" points="37.9,27.4 35.9,27.4 35.9,36.7 42.5,36.7 42.5,35.2 37.9,35.2 	"/>
	<path class="st0" d="M49.6,33.4c0,0.8-0.2,1.3-0.5,1.6c-0.4,0.3-0.8,0.4-1.4,0.4c-0.5,0-1-0.1-1.4-0.4c-0.4-0.3-0.6-0.8-0.6-1.6
		v-5.9h-2v6.1c0,0.7,0.1,1.3,0.4,1.8c0.2,0.5,0.6,0.8,1.2,1.1c0.6,0.3,1.3,0.4,2.2,0.4s1.6-0.2,2.2-0.5c0.6-0.3,1-0.7,1.2-1.1
		c0.2-0.4,0.3-1.1,0.3-1.9v-5.9h-1.5L49.6,33.4L49.6,33.4z"/>
	<path class="st0" d="M57.2,28.6c1.1,0,1.9,0.7,2.2,2.1l1.8-0.2c-0.2-1-0.6-1.9-1.3-2.4c-0.7-0.6-1.6-0.8-2.7-0.8
		c-1.4,0-2.4,0.5-3.2,1.3c-0.8,0.9-1.2,2-1.2,3.4c0,1.3,0.3,2.3,1,3.2c0.6,0.9,1.5,1.4,2.7,1.5L56,37.9c0.2,0,0.4,0,0.4,0
		c0.8,0,1.2,0.2,1.2,0.6c0,0.3-0.2,0.5-0.7,0.5c-0.3,0-0.7-0.1-1.3-0.3l-0.3,0.6c0.7,0.3,1.3,0.4,1.8,0.4c0.5,0,0.9-0.1,1.2-0.3
		c0.3-0.2,0.4-0.5,0.4-0.8s-0.1-0.6-0.4-0.8c-0.3-0.2-0.7-0.3-1.4-0.3l0.2-0.5c1.2,0,2.1-0.4,2.9-1c0.7-0.6,1.1-1.3,1.2-2.2
		l-1.8-0.2c0,0.5-0.3,1-0.7,1.4c-0.4,0.4-0.9,0.6-1.4,0.6c-0.7,0-1.3-0.3-1.7-0.9c-0.4-0.6-0.6-1.4-0.6-2.5c0-1.1,0.2-1.9,0.6-2.5
		C55.9,28.9,56.4,28.6,57.2,28.6z"/>
	<path class="st0" d="M68,25.5c-0.2,0-0.6-0.1-1.1-0.3c-0.4-0.2-0.8-0.3-1.1-0.3c-0.6,0-1.1,0.3-1.6,0.8l0.5,0.7
		c0.4-0.4,0.7-0.5,1-0.5c0.2,0,0.5,0.1,0.8,0.2c0.5,0.2,0.9,0.3,1.2,0.3c0.3,0,0.6-0.1,0.9-0.2c0.3-0.1,0.6-0.3,0.7-0.6l-0.6-0.7
		C68.6,25.3,68.3,25.5,68,25.5z"/>
	<path class="st0" d="M66.7,27.3c-1.4,0-2.5,0.5-3.3,1.4c-0.8,0.9-1.3,2-1.3,3.4c0,1.3,0.4,2.5,1.2,3.4c0.8,0.9,1.9,1.4,3.3,1.4
		c1.4,0,2.5-0.4,3.3-1.3c0.8-0.9,1.3-2,1.3-3.5c0-1.4-0.4-2.5-1.2-3.4C69.2,27.7,68.1,27.3,66.7,27.3z M68.4,34.7
		c-0.5,0.5-1.1,0.7-1.8,0.7c-0.8,0-1.4-0.3-1.8-0.9c-0.4-0.6-0.6-1.4-0.6-2.5c0-2.3,0.8-3.4,2.5-3.4c0.8,0,1.5,0.3,1.9,0.9
		c0.4,0.6,0.6,1.4,0.6,2.5C69.2,33.4,68.9,34.2,68.4,34.7z"/>
	<polygon class="st0" points="75,32.7 79,32.7 79,31.3 75,31.3 75,28.8 80,28.8 80,27.4 73.1,27.4 73.1,36.7 80,36.7 80,35.3 
		75,35.3 	"/>
	<path class="st0" d="M86.5,31.3l-1.8-0.4c-1-0.2-1.5-0.6-1.5-1.1c0-0.3,0.1-0.6,0.5-0.8c0.3-0.2,0.8-0.3,1.4-0.3c1,0,1.7,0.4,2,1.1
		l1.9-0.4c-0.2-0.6-0.7-1.1-1.4-1.5c-0.7-0.3-1.6-0.5-2.5-0.5c-1.1,0-2,0.2-2.7,0.7c-0.7,0.5-1.1,1.2-1.1,2c0,0.4,0.1,0.8,0.3,1.2
		c0.2,0.4,0.5,0.6,0.8,0.8c0.3,0.2,0.9,0.4,1.6,0.5l2.1,0.5c0.6,0.1,0.9,0.3,1.1,0.5c0.2,0.2,0.3,0.4,0.3,0.7c0,0.4-0.2,0.6-0.6,0.9
		c-0.4,0.2-0.9,0.4-1.6,0.4c-1.5,0-2.4-0.5-2.6-1.4l-1.9,0.3c0.3,0.8,0.8,1.4,1.6,1.8c0.8,0.4,1.7,0.6,2.8,0.6
		c1.3,0,2.3-0.3,3.1-0.8c0.8-0.5,1.2-1.2,1.2-2.1c0-0.6-0.2-1.1-0.6-1.5C88.3,31.9,87.6,31.5,86.5,31.3z"/>
	<polygon class="st0" points="96.9,32.7 100.9,32.7 100.9,31.3 96.9,31.3 96.9,28.8 101.9,28.8 101.9,27.4 95,27.4 95,36.7 
		102,36.7 102,35.3 96.9,35.3 	"/>
	<polygon class="st0" points="108.9,33.4 106.7,27.4 103.6,27.4 103.6,36.7 105.2,36.7 105.2,28.6 108.2,36.7 109.2,36.7 
		112.2,28.6 112.2,36.7 114.2,36.7 114.2,27.4 111.1,27.4 	"/>
	<polygon class="st0" points="119.4,28.9 122.3,28.9 122.3,36.7 124.4,36.7 124.4,28.9 127.2,28.9 127.2,27.4 119.4,27.4 	"/>
	<rect x="128.4" y="27.4" class="st0" width="1.9" height="9.2"/>
</g>
</svg>
